<svg xmlns="http://www.w3.org/2000/svg" width="16" height="10.97"><defs><filter id="a" x="67" y="2988.44" width="16" height="10.97" filterUnits="userSpaceOnUse"><feFlood result="flood" flood-color="#00ceb9"/><feComposite result="composite" operator="in" in2="SourceGraphic"/><feBlend result="blend" in2="SourceGraphic"/></filter></defs><path data-name="иконка письмо" d="M81 2999.42a1.9 1.9 0 0 0 1.993-1.79v-7.39a1.906 1.906 0 0 0-1.993-1.79H68.993a1.908 1.908 0 0 0-1.993 1.79v7.39a1.906 1.906 0 0 0 1.993 1.79H81zm-11.963-8.47a.418.418 0 0 1-.056-.63.546.546 0 0 1 .692-.05l5.327 4.07 5.327-4.06a.523.523 0 0 1 .692.05.411.411 0 0 1-.056.62l-3.8 2.9 3.818 3.23a.417.417 0 0 1 .02.63.527.527 0 0 1-.692.02l-3.9-3.3-1.089.83a.55.55 0 0 1-.632 0l-1.089-.83-3.9 3.3a.527.527 0 0 1-.693-.02.42.42 0 0 1 .02-.63l3.818-3.23z" transform="translate(-67 -2988.44)" fill="#666" fill-rule="evenodd" filter="url(#a)"/></svg>