<svg xmlns="http://www.w3.org/2000/svg" xmlns:xlink="http://www.w3.org/1999/xlink" width="12" height="15" viewBox="0 0 12 15">
  <metadata><?xpacket begin="﻿" id="W5M0MpCehiHzreSzNTczkc9d"?>
<x:xmpmeta xmlns:x="adobe:ns:meta/" x:xmptk="Adobe XMP Core 5.6-c142 79.160924, 2017/07/13-01:06:39        ">
   <rdf:RDF xmlns:rdf="http://www.w3.org/1999/02/22-rdf-syntax-ns#">
      <rdf:Description rdf:about=""/>
   </rdf:RDF>
</x:xmpmeta>





















<?xpacket end="w"?></metadata>
  <path id="иконка_геолокация" data-name="иконка геолокация" class="cls-1" d="M26.786,3751a5.988,5.988,0,0,0-5.677,7.12h0s0.009,0.06.04,0.18a5.737,5.737,0,0,0,.4,1.19,17.289,17.289,0,0,0,5.113,6.38,0.522,0.522,0,0,0,.666,0,17.339,17.339,0,0,0,5.116-6.38,5.755,5.755,0,0,0,.4-1.19c0.028-.12.04-0.19,0.04-0.19h0A5.983,5.983,0,0,0,26.786,3751ZM27,3759.96a2.91,2.91,0,1,1,2.914-2.91A2.916,2.916,0,0,1,27,3759.96Z" transform="translate(-21 -3751)"/>
</svg>
