<svg xmlns="http://www.w3.org/2000/svg" xmlns:xlink="http://www.w3.org/1999/xlink" width="13.031" height="11.94" viewBox="0 0 13.031 11.94">
  <metadata><?xpacket begin="﻿" id="W5M0MpCehiHzreSzNTczkc9d"?>
<x:xmpmeta xmlns:x="adobe:ns:meta/" x:xmptk="Adobe XMP Core 5.6-c142 79.160924, 2017/07/13-01:06:39        ">
   <rdf:RDF xmlns:rdf="http://www.w3.org/1999/02/22-rdf-syntax-ns#">
      <rdf:Description rdf:about=""/>
   </rdf:RDF>
</x:xmpmeta>





















<?xpacket end="w"?></metadata>
<defs>
    <style>
      .cls-1 {
        fill: #666;
        fill-rule: evenodd;
        opacity: 0.5;
        filter: url(#filter);
      }
    </style>
    <filter id="filter" x="20" y="3896.81" width="13.031" height="11.94" filterUnits="userSpaceOnUse">
      <feFlood result="flood" flood-color="#fff"/>
      <feComposite result="composite" operator="in" in2="SourceGraphic"/>
      <feBlend result="blend" in2="SourceGraphic"/>
    </filter>
  </defs>
  <path id="иконка_телефон" data-name="иконка телефон" class="cls-1" d="M32.995,3906.67a3.6,3.6,0,0,1-3.725,2.05,11.109,11.109,0,0,1-5.828-3.13,9.754,9.754,0,0,1-3.414-5.34,2.836,2.836,0,0,1,2.235-3.41,1.17,1.17,0,0,1,.267-0.04c0.969,0,2.124,1.26,2.525,2.16a1.084,1.084,0,0,1-.057,1.31,2.086,2.086,0,0,0-1,1.46,3.312,3.312,0,0,0,1.189,1.6c0.092,0.09.216,0.21,0.356,0.34s0.254,0.23.364,0.32a3.331,3.331,0,0,0,1.814,1.09,2.5,2.5,0,0,0,1.528-.91,0.893,0.893,0,0,1,.635-0.22,4.314,4.314,0,0,1,2.712,1.51A1.336,1.336,0,0,1,32.995,3906.67Z" transform="translate(-20 -3896.81)"/>
</svg>
